<?xml version="1.0" encoding="UTF-8"?>
<svg width="48px" height="48px" viewBox="0 0 48 48" version="1.1" xmlns="http://www.w3.org/2000/svg" xmlns:xlink="http://www.w3.org/1999/xlink">
    <!-- Generator: Sketch 64 (93537) - https://sketch.com -->
    <title>Amenities / Wifi / amenity-wifi-grey</title>
    <desc>Created with Sketch.</desc>
    <g id="Amenities-/-Wifi-/-amenity-wifi-grey" stroke="none" stroke-width="1" fill="none" fill-rule="evenodd">
        <path d="M24.0004919,36 C25.6542056,36 27,37.3448106 27,38.9995081 C27,40.6542056 25.6542056,42 24.0004919,42 C22.3467782,42 21,40.6542056 21,38.9995081 C21,37.3448106 22.3467782,36 24.0004919,36 Z M23.9252745,26 C28.5989033,26 32.7844633,28.6277282 34.8491424,32.8586479 C34.9516861,33.0696985 35,33.2926392 35,33.5126074 C35,34.0615371 34.6953267,34.5896589 34.171762,34.8482702 C33.4391657,35.2089387 32.5527539,34.9047485 32.1928647,34.1675578 C30.6290725,30.9631562 27.461062,28.9725432 23.9252745,28.9725432 C20.5107647,28.9725432 17.3910682,30.8591172 15.784878,33.8970564 C15.4013249,34.621366 14.5060391,34.8958309 13.7842888,34.5113819 C13.0635245,34.1259422 12.7904032,33.2262524 13.1729702,32.5009519 C15.2938512,28.491982 19.4133493,26 23.9252745,26 Z M23.9035283,16 C30.5062833,16 36.6249998,19.1134702 40.6917078,24.5417202 C40.8988723,24.819128 41,25.1493753 41,25.4745419 C41,25.9297752 40.8046174,26.3809438 40.4295612,26.6807068 C39.7874495,27.1958926 38.861591,27.0749713 38.3628253,26.4093959 C34.8596834,21.7310614 29.5892613,19.0484369 23.9035283,19.0484369 C18.3287413,19.0484369 13.1231195,21.6416406 9.6219412,26.1614564 C9.11335725,26.8178865 8.186517,26.9235656 7.5522598,26.3972022 C6.91702077,25.8708387 6.81491125,24.9105811 7.3234952,24.2551672 C11.3872577,19.0088072 17.4303739,16 23.9035283,16 Z M23.8924156,6 C32.5335618,6 40.8171705,9.81273749 46.6207338,16.4609257 C46.8745656,16.7521836 47,17.1154947 47,17.4767762 C47,17.8948885 46.834071,18.3099563 46.5081391,18.6103476 C45.8987452,19.1725666 44.9624318,19.1197951 44.4162489,18.4946564 C39.1726959,12.4888591 31.6920648,9.04450691 23.8924156,9.04450691 C16.2093117,9.04450691 8.80275602,12.4056425 3.57303044,18.2632738 C3.01993387,18.8833384 2.08263273,18.9249467 1.48015254,18.3566387 C0.876684677,17.7883308 0.837177779,16.8252517 1.38928667,16.206202 C7.17902252,9.71937261 15.3806545,6 23.8924156,6 Z" id="Wifi" fill="#848996"></path>
    </g>
</svg>