<?xml version="1.0" encoding="UTF-8"?>
<svg width="73px" height="70px" viewBox="0 0 73 70" version="1.1" xmlns="http://www.w3.org/2000/svg" xmlns:xlink="http://www.w3.org/1999/xlink">
    <!-- Generator: Sketch 63.1 (92452) - https://sketch.com -->
    <title>Artboard</title>
    <desc>Created with Sketch.</desc>
    <g id="Artboard" stroke="none" stroke-width="1" fill="none" fill-rule="evenodd">
        <g id="Camera" transform="translate(14.000000, 17.000000)" fill="#FF4F4F" fill-rule="nonzero">
            <path d="M11.9479,1.75 C12.43665,0.6836 13.5021,0 14.6751,0 L27.3251,0 C28.4981,0 29.5635,0.68368 30.0523,1.75 L32.0002,6 L39.0002,6 C40.6571,6 42.0002,7.3431 42.0002,9 L42.0002,33 C42.0002,34.6569 40.6571,36 39.0002,36 L3.0002,36 C1.3433,36 0.0002,34.6569 0.0002,33 L0.0002,9 C0.0002,7.3431 1.3433,6 3.0002,6 L10.0002,6 L11.9479,1.75 Z M12,9 L3,9 L3,33 L39,33 L39,9 L30,9 L27.3,3 L14.7,3 L12,9 Z M21,12 C25.9706,12 30,16.0294 30,21 C30,25.9706 25.9706,30 21,30 C16.0294,30 12,25.9706 12,21 C12,16.0294 16.0294,12 21,12 Z M21,15 C17.6863,15 15,17.6863 15,21 C15,24.3137 17.6863,27 21,27 C24.3137,27 27,24.3137 27,21 C27,17.6863 24.3137,15 21,15 Z"></path>
        </g>
    </g>
</svg>