<?xml version="1.0" encoding="UTF-8"?>
<svg width="118px" height="113px" viewBox="0 0 118 113" version="1.1" xmlns="http://www.w3.org/2000/svg" xmlns:xlink="http://www.w3.org/1999/xlink">
    <!-- Generator: Sketch 63.1 (92452) - https://sketch.com -->
    <title>Close</title>
    <desc>Created with Sketch.</desc>
    <g id="Close" stroke="none" stroke-width="1" fill="none" fill-rule="evenodd">
        <g id="02-AMEX-Icons-/-Directional-/-Cancel-Circle-/-Default" transform="translate(35.000000, 32.500000)" fill="#006FCF" fill-rule="nonzero">
            <path d="M24,0 C37.2548218,0 48,10.7451782 48,24 C48,37.2548218 37.2548199,48 24,48 C10.7451801,48 0,37.2548199 0,24 C0,10.7451801 10.7451801,0 24,0 Z M24,3 C12.4205303,3 3,12.4205303 3,24 C3,35.5794106 12.4205303,45 24,45 C35.5794716,45 45,35.5794106 45,24 C45,12.4205303 35.5794697,3 24,3 Z M18.2869988,15.4689537 L18.4142136,15.5857864 L24,21.171 L29.5857864,15.5857864 C30.3257272,14.8458457 31.5012114,14.8069014 32.2869988,15.4689537 L32.4142136,15.5857864 C33.1541543,16.3257272 33.1930986,17.5012114 32.5310463,18.2869988 L32.4142136,18.4142136 L26.829,24 L32.4142136,29.5857864 C33.1541543,30.3257272 33.1930986,31.5012114 32.5310463,32.2869988 L32.4142136,32.4142136 C31.6742728,33.1541543 30.4987886,33.1930986 29.7130012,32.5310463 L29.5857864,32.4142136 L24,26.829 L18.4142136,32.4142136 C17.6742728,33.1541543 16.4987886,33.1930986 15.7130012,32.5310463 L15.5857864,32.4142136 C14.8458457,31.6742728 14.8069014,30.4987886 15.4689537,29.7130012 L15.5857864,29.5857864 L21.171,24 L15.5857864,18.4142136 C14.8869535,17.7153806 14.8133921,16.6280537 15.3651024,15.8474326 L15.4689537,15.7130012 L15.5857864,15.5857864 C16.3257272,14.8458457 17.5012114,14.8069014 18.2869988,15.4689537 Z" id="Shape"></path>
        </g>
    </g>
</svg>