<?xml version="1.0" encoding="UTF-8"?>
<svg width="48px" height="48px" viewBox="0 0 48 48" version="1.1" xmlns="http://www.w3.org/2000/svg" xmlns:xlink="http://www.w3.org/1999/xlink">
    <!-- Generator: Sketch 64 (93537) - https://sketch.com -->
    <title>Amenities / Tv / amenity-entertainment-grey</title>
    <desc>Created with Sketch.</desc>
    <g id="Amenities-/-Tv-/-amenity-entertainment-grey" stroke="none" stroke-width="1" fill="none" fill-rule="evenodd">
        <path d="M24,0 C37.3,0 48,10.7 48,24 C48,37.3 37.3,48 24,48 C10.7,48 0,37.3 0,24 C0,10.7 10.7,0 24,0 Z M24,3 C12.4,3 3,12.4 3,24 C3,35.6 12.4,45 24,45 C35.6,45 45,35.6 45,24 C45,12.4 35.6,3 24,3 Z M21.0598408,14.4374043 L32.5598408,21.4374043 C34.4800531,22.6062292 34.4800531,25.3937708 32.5598408,26.5625957 L21.0598408,33.5625957 C19.0606529,34.7794927 16.5,33.3404254 16.5,31 L16.5,17 C16.5,14.6595746 19.0606529,13.2205073 21.0598408,14.4374043 Z M19.5,17 L19.5,31 L31,24 L19.5,17 Z" id="Play-Circle" fill="#848996"></path>
    </g>
</svg>