<?xml version="1.0" encoding="UTF-8"?>
<svg width="48px" height="48px" viewBox="0 0 48 48" version="1.1" xmlns="http://www.w3.org/2000/svg" xmlns:xlink="http://www.w3.org/1999/xlink">
    <!-- Generator: Sketch 64 (93537) - https://sketch.com -->
    <title>Amenities / Room Service / Default</title>
    <desc>Created with Sketch.</desc>
    <g id="Amenities-/-Room-Service-/-Default" stroke="none" stroke-width="1" fill="none" fill-rule="evenodd">
        <path d="M43.5,39 C44.3286133,39 45,39.671875 45,40.5 C45,41.2794118 44.4052768,41.9204152 43.6444891,41.9931305 L4.5,42 C3.6713867,42 3,41.328125 3,40.5 C3,39.7205882 3.59472317,39.0795848 4.35551089,39.0068695 L43.5,39 Z M27,6 C27.8286133,6 28.5,6.67222512 28.5,7.50078166 C28.5,8.28059958 27.9052768,8.92193707 27.1444891,8.9946902 L25.5,9.00156331 L25.5,12.1388174 C34.6146117,12.8965668 41.8264959,20.4653136 41.9969156,29.7362803 L42,34.4992183 C42,35.2790363 41.4052768,35.9203738 40.6444891,35.9931269 L7.5,36 C6.72012866,36 6.07953071,35.4045342 6.00686476,34.6437064 L6,30.0721079 C6,20.7608654 13.1033769,13.0902913 22.1713938,12.169163 L22.5,12.1388174 L22.5,9.00156331 L21,9.00156331 C20.1713867,9.00156331 19.5,8.3293382 19.5,7.50078166 C19.5,6.72096374 20.0947232,6.07962625 20.8555109,6.00687311 L27,6 Z M24,15 C15.8337001,15 9.1706016,21.5867679 9.00322406,29.7482563 L9,33 L39,33 L39,30.0629256 C39,21.756742 32.2709961,15 24,15 Z M20.6627107,18.5384132 C21.4699228,18.3521335 22.2753071,18.8554986 22.4615868,19.6627107 C22.6478665,20.4699228 22.1445014,21.2753071 21.3372893,21.4615868 C19.1796771,21.9594973 17.5087834,23.273501 16.2413665,25.1959874 C15.6461614,26.0988265 15.1816256,27.0756542 14.8366604,28.0526536 C14.7684632,28.2457995 14.710052,28.4233058 14.6608255,28.5824123 L14.5744404,28.8752748 L14.470871,29.2941742 C14.3084031,30.1065138 13.5181654,30.6333389 12.7058258,30.470871 C11.8934862,30.3084031 11.3666611,29.5181654 11.529129,28.7058258 C11.5607114,28.5479137 11.6083752,28.3467922 11.6739879,28.10862 L11.726592,27.92314 L12.0078184,27.0538279 C12.4290997,25.8606884 12.9965855,24.6673772 13.7366856,23.5447534 C15.3993099,21.0227952 17.6845205,19.2256879 20.6627107,18.5384132 Z" id="Concierge" fill="#848996"></path>
    </g>
</svg>