<?xml version="1.0" encoding="UTF-8"?>
<svg width="48px" height="48px" viewBox="0 0 48 48" version="1.1" xmlns="http://www.w3.org/2000/svg" xmlns:xlink="http://www.w3.org/1999/xlink">
    <!-- Generator: Sketch 64 (93537) - https://sketch.com -->
    <title> Amenities / Luggage / amenity-luggage-grey</title>
    <desc>Created with Sketch.</desc>
    <g id="-Amenities-/-Luggage-/-amenity-luggage-grey" stroke="none" stroke-width="1" fill="none" fill-rule="evenodd">
        <path d="M31,4 C32.5,4 34,5.5 33.9948821,6.9999371 L34,9.9998742 L42,9.9998742 C43.5910917,9.9998742 44.9031902,11.2551784 44.9948821,12.824229 L45,37.9993081 C45,39.5903664 43.7447262,40.9024375 42.175592,40.9941274 L35.991325,40.9992452 C35.990288,42.1280625 35.357727,43.2096479 34.267147,43.7181782 C33.51635,44.0683299 32.694698,44.0809596 31.973198,43.8183351 C31.251766,43.5557716 30.630486,43.0179339 30.280327,42.2671596 C30.1205703,41.9246068 30.0371026,41.5679453 30.0139671,41.2123517 L30.007198,40.9992452 L17.992059,40.9992452 C17.99102,42.1280625 17.358459,43.2096479 16.267879,43.7181782 C15.517021,44.0683299 14.69543,44.0809596 13.97393,43.8183351 C13.2525,43.5557716 12.63116,43.0179339 12.28106,42.2671596 C12.1213017,41.9246068 12.037835,41.5679453 12.0146994,41.2123517 L12.014,40.999 L6,40.9992452 C4.40890929,40.9992452 3.09680985,39.7439977 3.00511791,38.1748964 L3,12.9998113 C3,11.4088108 4.25527477,10.0966861 5.82440808,10.0049922 L14,9.9998742 L14,6.9999371 C14,5.4089376 15,4 16.824408,4.00511802 L31,4 Z M42,13 L6,13 L6,38 L9,37.999 L9,13 L12,13 L12,37.999 L36,37.999 L36,13 L39,13 L39,37.999 L42,38 L42,13 Z M31,7 L17,7 L17,10 L31,10 L31,7 Z" id="Travel-Bag" fill="#848996"></path>
    </g>
</svg>