<?xml version="1.0" encoding="UTF-8"?>
<svg width="48px" height="48px" viewBox="0 0 48 48" version="1.1" xmlns="http://www.w3.org/2000/svg" xmlns:xlink="http://www.w3.org/1999/xlink">
    <!-- Generator: Sketch 64 (93537) - https://sketch.com -->
    <title>Amenities / Seat / amenity-seat-grey</title>
    <desc>Created with Sketch.</desc>
    <g id="Amenities-/-Seat-/-amenity-seat-grey" stroke="none" stroke-width="1" fill="none" fill-rule="evenodd">
        <path d="M15,3 L33,3 C34.5976864,3 35.9036613,4.25023221 35.9949073,5.82670477 L36,6.003164 L36,14.985956 L42,14.985956 C43.5976864,14.985956 44.9036613,16.2361882 44.9949073,17.8126608 L45,17.98912 L45,36.008107 C45,37.607478 43.7510854,38.9148288 42.1762734,39.006171 L42,39.011269 L39,39.011269 L39,43.498417 C39,44.327415 38.3125,45 37.484375,45 C36.7049632,45 36.0778006,44.4042154 36.0067137,43.642982 L36,43.498417 L36.007812,39.011269 L12,39.011269 L12,43.498417 C12,44.327415 11.312988,45 10.484375,45 C9.70450394,45 9.07774657,44.4042154 9.00670893,43.642982 L9,43.498417 L9.007812,39.011268 L6,39.011268 C4.40231357,39.011268 3.09633872,37.7610376 3.00509267,36.1845652 L3,36.008106 L3,17.98912 C3,16.389749 4.24891462,15.0823964 5.82372664,14.991054 L6,14.985956 L12,14.985956 L12,6.003164 C12,4.40379296 13.2489146,3.09644036 14.8237266,3.00509804 L15,3 L33,3 L15,3 Z M12,18 L6,18 L6,36 L12,36 L12,18 Z M33,30 L15,30 L15.0029302,36 L33,36 L33,30 Z M42,18 L36,18 L36,28.4990219 L36.004089,36 L42,36 L42,18 Z M33,6 L15,6 L15,27 L33,27 L33,6 Z" id="Lounge" fill="#848996"></path>
    </g>
</svg>