<?xml version="1.0" encoding="UTF-8"?>
<svg width="48px" height="48px" viewBox="0 0 48 48" version="1.1" xmlns="http://www.w3.org/2000/svg" xmlns:xlink="http://www.w3.org/1999/xlink">
    <!-- Generator: Sketch 64 (93537) - https://sketch.com -->
    <title>Amenities / Meal / amenity-food-grey</title>
    <desc>Created with Sketch.</desc>
    <g id="Amenities-/-Meal-/-amenity-food-grey" stroke="none" stroke-width="1" fill="none" fill-rule="evenodd">
        <path d="M22.5,0 C21.67188,0 21,0.67139 21,1.5 L21,9 L18,9 L18,1.5 C18,0.67139 17.328118,0 16.5,0 C15.671881,0 15,0.67139 15,1.5 L15,9 L12,9 L12,1.5 C12,0.67139 11.32861,0 10.5,0 C9.67139,0 9,0.67139 9,1.5 L9,13.5 C9,15.981449 11.01855,18 13.5,18 L15,18 L15,46.5 C15,47.328121 15.671881,48 16.5,48 C17.328118,48 18,47.328121 18,46.5 L18,18 L19.5,18 C21.98145,18 24,15.981449 24,13.5 L24,1.5 C24,0.67139 23.328118,0 22.5,0 Z M37.422845,0.00244 C37.833978,-0.02051 38.236329,0.12744 38.536126,0.41064 C38.7976075,0.65844875 38.9603831,0.991111719 38.9969967,1.34648695 L39.004884,1.5 L39.004884,46.5 C39.004884,47.328121 38.333009,48 37.504884,48 C36.7254798,48 36.0844697,47.4048407 36.0117536,46.6444122 L36.004884,46.5 L36.004884,29.250799 L35.930665,29.25391 L35.930665,29.25391 C34.076173,29.25391 32.594728,28.70704 31.529298,27.62989 C29.594077,25.6732073 29.3919308,22.4382215 29.404499,18.6320726 L29.4303401,15.6825821 L29.4303401,15.6825821 L29.432618,15 C29.432618,6.70068 32.867188,0.25293 37.422845,0.00244 Z M36.00489,26.25391 L36.00489,3.72607 C34.1551309,5.31511308 32.5186024,9.36521254 32.435894,14.5854671 L32.4303367,15.6934504 L32.4303367,15.6934504 L32.4054855,18.4631559 C32.3907487,21.5809225 32.5104529,24.3565226 33.66211,25.52051 C34.1236485,25.986554 34.7857235,26.215447 35.7558724,26.2494461 L36.00489,26.25391 L36.00489,3.72607 L36.00489,26.25391 Z M21,12 L21,13.5 C21,14.32715 20.327149,15 19.5,15 L13.5,15 C12.67285,15 12,14.32715 12,13.5 L12,12 L21,12 Z" id="Dining" fill="#848996"></path>
    </g>
</svg>