<?xml version="1.0" encoding="UTF-8"?>
<svg width="48px" height="48px" viewBox="0 0 48 48" version="1.1" xmlns="http://www.w3.org/2000/svg" xmlns:xlink="http://www.w3.org/1999/xlink">
    <!-- Generator: Sketch 64 (93537) - https://sketch.com -->
    <title>amenity-bar-grey</title>
    <desc>Created with Sketch.</desc>
    <g id="amenity-bar-grey" stroke="none" stroke-width="1" fill="none" fill-rule="evenodd">
        <path d="M6.05663487,1.09338358 C6.26814909,0.342970756 7.01451885,-0.112337559 7.76632322,0.0240547078 L16.7763184,2.55649339 C17.1874188,2.67236684 17.5270513,2.95707946 17.7140798,3.33559971 L20.9136423,11.9992226 L29.999,11.999 L30.0041385,11.7750617 C30.1224282,8.56557489 32.7616031,6 36,6 C39.3137085,6 42,8.6862915 42,12 C42,14.6671118 40.2597687,16.9277708 37.8528273,17.7084558 L35.3080177,45.1664101 C35.2186045,46.7561598 33.8874611,48 32.2755426,48 L15.724541,48 C14.1126225,48 12.7814792,46.7561598 12.692066,45.1664101 L10.0047598,15.1664101 C9.91171592,13.5121068 11.1939743,12.0965247 12.868764,12.0046189 L17.717,11.999 L15.2262518,5.23630546 L7.0933877,2.94396271 C6.29607107,2.7192297 5.83190102,1.8906972 6.05663487,1.09338358 Z M34.492,23.999 L13.508,23.999 L15.6930307,45 L32.3069693,45 L34.492,23.999 Z M35,15 L13,15 L13.339,20.999 L34.661,20.999 L35,15 Z M36.0000002,9 C34.3434801,9 33.000542,10.3426038 33.0000002,11.9989971 L34.9628488,12 C36.3980395,12 37.6007255,12.9832941 37.9180988,14.3050596 C38.57914,13.7566074 39.0000002,12.9274523 39.0000002,12 C39.0000002,10.3431458 37.6568542,9 36.0000002,9 Z" id="Refreshment" fill="#848996"></path>
    </g>
</svg>